<?xml version="1.0" encoding="utf-8"?>
<!-- Generator: Adobe Illustrator 22.0.0, SVG Export Plug-In . SVG Version: 6.00 Build 0)  -->
<svg version="1.1" id="Layer_1" xmlns="http://www.w3.org/2000/svg" xmlns:xlink="http://www.w3.org/1999/xlink" x="0px" y="0px"
	 viewBox="0 0 59 66.7" style="enable-background:new 0 0 59 66.7;" xml:space="preserve">
<style type="text/css">
	.st0{fill:none;stroke:#71BC43;stroke-width:3;stroke-miterlimit:100;}
	.st1{fill:#71BC43;}
</style>
<g>
	<circle class="st0" cx="29.5" cy="33.9" r="22"/>
	<circle class="st1" cx="29.5" cy="33.9" r="5"/>
	<rect x="33.3" y="26.4" transform="matrix(0.7071 -0.7071 0.7071 0.7071 -8.5674 33.5685)" class="st1" width="5.9" height="1.5"/>
	
		<rect x="19.8" y="39.9" transform="matrix(0.7071 -0.7071 0.7071 0.7071 -22.0574 27.9808)" class="st1" width="5.9" height="1.5"/>
	<rect x="22" y="24.2" transform="matrix(0.7071 -0.7071 0.7071 0.7071 -12.5185 24.0296)" class="st1" width="1.5" height="5.9"/>
	
		<rect x="35.5" y="37.7" transform="matrix(0.7071 -0.7071 0.7071 0.7071 -18.1063 37.5196)" class="st1" width="1.5" height="5.9"/>
	<rect x="28.8" y="21.4" class="st1" width="1.5" height="5.9"/>
	<rect x="28.8" y="40.5" class="st1" width="1.5" height="5.9"/>
	<rect x="36.1" y="33.1" class="st1" width="5.9" height="1.5"/>
	<rect x="17" y="33.1" class="st1" width="5.9" height="1.5"/>
</g>
</svg>
