<svg xmlns="http://www.w3.org/2000/svg" width="48.696" height="45" viewBox="0 0 48.696 45">
  <path id="Subtraction_1" data-name="Subtraction 1" d="M-3921.551-1834a5.3,5.3,0,0,1-5.427-5.159,4.942,4.942,0,0,1,.692-2.516h-11.3a4.95,4.95,0,0,1,.691,2.516,5.3,5.3,0,0,1-5.427,5.159,5.3,5.3,0,0,1-5.427-5.159,4.944,4.944,0,0,1,.692-2.516h-2.233a1.238,1.238,0,0,1-1.273-1.2v-29.6l-9.283-2.574a1.593,1.593,0,0,1-.976-.763,1.42,1.42,0,0,1-.112-1.113,1.594,1.594,0,0,1,1.515-1.082h.061a1.719,1.719,0,0,1,.422.062l10.154,2.814a1.619,1.619,0,0,1,.574.292,1.173,1.173,0,0,1,.594,1.007v4.642l5.311.791c0,.127-.006.259-.006.392a11.92,11.92,0,0,0,3.515,8.485,11.921,11.921,0,0,0,8.485,3.515,12.015,12.015,0,0,0,11.59-8.879l4.936.735.474.03v8.031a6.865,6.865,0,0,1-5.793,6.606h-25.668a7.416,7.416,0,0,1-2.844-1.169v6.454h27.251a5.507,5.507,0,0,1,3.029,1.789,5.009,5.009,0,0,1,1.211,3.245A5.3,5.3,0,0,1-3921.551-1834Zm-.835-7.675a2.645,2.645,0,0,0-1.912,2.516,2.7,2.7,0,0,0,2.747,2.642,2.7,2.7,0,0,0,2.747-2.642,2.648,2.648,0,0,0-1.924-2.521h-.02c-.024,0-.046,0-.067,0Zm-20.771,0a2.646,2.646,0,0,0-1.912,2.516,2.7,2.7,0,0,0,2.747,2.642,2.7,2.7,0,0,0,2.748-2.642,2.645,2.645,0,0,0-1.913-2.516Z" transform="translate(3961.505 1878.5)" fill="#71bc43" stroke="rgba(0,0,0,0)" stroke-miterlimit="10" stroke-width="1"/>
</svg>
