<svg xmlns="http://www.w3.org/2000/svg" width="23.243" height="23.95" viewBox="0 0 23.243 23.95">
  <g id="Union_1" data-name="Union 1" transform="translate(1990)" fill="none">
    <path d="M-1977.936,14.893A7.964,7.964,0,0,1-1982,16a8,8,0,0,1-8-8,8,8,0,0,1,8-8,8,8,0,0,1,8,8,7.965,7.965,0,0,1-1.68,4.906l8.923,8.923-2.121,2.121Z" stroke="none"/>
    <path d="M -1981.999877929688 14.00020027160645 C -1980.925415039062 14.00020027160645 -1979.871948242188 13.71333980560303 -1978.953369140625 13.17062950134277 L -1977.965576171875 12.5870361328125 L -1977.259155273438 11.67836952209473 C -1976.435302734375 10.61856937408447 -1975.999755859375 9.346650123596191 -1975.999755859375 8.000100135803223 C -1975.999755859375 4.691629886627197 -1978.69140625 1.99999988079071 -1981.999877929688 1.99999988079071 C -1985.308349609375 1.99999988079071 -1988 4.691629886627197 -1988 8.000100135803223 C -1988 11.30856990814209 -1985.308349609375 14.00020027160645 -1981.999877929688 14.00020027160645 M -1968.878784179688 23.94989967346191 L -1977.93603515625 14.89256000518799 C -1979.127075195312 15.59622955322266 -1980.516479492188 16.00020027160645 -1981.999877929688 16.00020027160645 C -1986.41796875 16.00020027160645 -1990 12.41819953918457 -1990 8.000100135803223 C -1990 3.581999778747559 -1986.41796875 -1.63269049835435e-07 -1981.999877929688 -1.63269049835435e-07 C -1977.581787109375 -1.63269049835435e-07 -1973.999755859375 3.581999778747559 -1973.999755859375 8.000100135803223 C -1973.999755859375 9.84889030456543 -1974.626953125 11.5511302947998 -1975.68017578125 12.90590000152588 L -1966.757446289062 21.82859992980957 L -1968.878784179688 23.94989967346191 Z" stroke="none" fill="#707070"/>
  </g>
</svg>
