<?xml version="1.0" encoding="utf-8"?>
<!-- Generator: Adobe Illustrator 22.0.0, SVG Export Plug-In . SVG Version: 6.00 Build 0)  -->
<svg version="1.1" id="Layer_1" xmlns="http://www.w3.org/2000/svg" xmlns:xlink="http://www.w3.org/1999/xlink" x="0px" y="0px"
	 viewBox="0 0 66.9 65.2" style="enable-background:new 0 0 66.9 65.2;" xml:space="preserve">
<style type="text/css">
	.st0{fill-rule:evenodd;clip-rule:evenodd;fill:#71BC43;}
</style>
<path class="st0" d="M25.9,51c1.5,0,2.7-1.2,2.7-2.6c0-1.2-0.8-2.2-1.9-2.5h-1.7c-1.1,0.4-1.9,1.3-1.9,2.5
	C23.1,49.8,24.4,51,25.9,51z M46.7,51c1.5,0,2.8-1.2,2.8-2.6c0-1.2-0.8-2.2-1.9-2.5c0,0-0.1,0-0.1,0h-1.6c-1.1,0.4-1.9,1.3-1.9,2.5
	C43.9,49.8,45.1,51,46.7,51z M7.3,10.6c0.3-0.8,1.1-1.3,2-1l10.2,2.8c0.2,0.1,0.4,0.2,0.6,0.3c0.4,0.2,0.6,0.6,0.6,1v4.6l33.8,5
	l0.5,0v8c0,3.3-2.5,6-5.8,6.6H23.4c-1.1-0.2-2-0.6-2.9-1.2v6.5h27.3c2.4,0.5,4.2,2.6,4.2,5c0,2.8-2.4,5.2-5.4,5.2s-5.4-2.3-5.4-5.2
	c0-0.9,0.3-1.8,0.7-2.5H30.6c0.4,0.8,0.7,1.6,0.7,2.5c0,2.8-2.4,5.2-5.4,5.2s-5.4-2.3-5.4-5.2c0-0.9,0.3-1.8,0.7-2.5h-2.2
	c-0.7,0-1.3-0.5-1.3-1.2V15l-9.3-2.6C7.5,12.2,7,11.4,7.3,10.6z"/>
</svg>
